<mxfile host="app.diagrams.net" modified="2023-09-28T04:57:54.007Z" agent="Mozilla/5.0 (Windows NT 10.0; Win64; x64) AppleWebKit/537.36 (KHTML, like Gecko) Chrome/115.0.0.0 Safari/537.36" etag="AcwOWHAQvDPjt-MAyQne" version="21.8.2" type="device" pages="2">
  <diagram name="Page-1" id="sTQ6ejA8YdcaburvhBeP">
    <mxGraphModel dx="1390" dy="755" grid="0" gridSize="10" guides="1" tooltips="1" connect="1" arrows="1" fold="1" page="0" pageScale="1" pageWidth="1654" pageHeight="2336" math="0" shadow="0">
      <root>
        <mxCell id="0" />
        <mxCell id="1" parent="0" />
        <mxCell id="tE2xpC-ojI5xECerwKau-26" value="&lt;font style=&quot;font-size: 16px;&quot;&gt;Controller&lt;/font&gt;" style="shape=folder;fontStyle=1;spacingTop=10;tabWidth=40;tabHeight=14;tabPosition=left;html=1;whiteSpace=wrap;strokeColor=default;align=center;verticalAlign=top;fontFamily=Helvetica;fontSize=12;fontColor=default;fillColor=default;" parent="1" vertex="1">
          <mxGeometry x="106" y="356" width="1896" height="634" as="geometry" />
        </mxCell>
        <mxCell id="tE2xpC-ojI5xECerwKau-6" value="" style="group" parent="1" vertex="1" connectable="0">
          <mxGeometry x="985.67" y="79" width="377" height="195" as="geometry" />
        </mxCell>
        <mxCell id="tE2xpC-ojI5xECerwKau-2" value="&lt;font style=&quot;font-size: 16px;&quot;&gt;Presentation Layer&lt;/font&gt;" style="shape=folder;fontStyle=1;spacingTop=10;tabWidth=40;tabHeight=14;tabPosition=left;html=1;whiteSpace=wrap;verticalAlign=top;" parent="tE2xpC-ojI5xECerwKau-6" vertex="1">
          <mxGeometry x="-13.67357512953368" y="1.875" width="377" height="195" as="geometry" />
        </mxCell>
        <mxCell id="tE2xpC-ojI5xECerwKau-4" value="&lt;font style=&quot;font-size: 14px; font-weight: normal;&quot;&gt;GUI&lt;/font&gt;" style="shape=folder;fontStyle=1;spacingTop=10;tabWidth=40;tabHeight=14;tabPosition=left;html=1;whiteSpace=wrap;verticalAlign=top;" parent="tE2xpC-ojI5xECerwKau-6" vertex="1">
          <mxGeometry x="11.720207253886011" y="48.75" width="148.4559585492228" height="101.25" as="geometry" />
        </mxCell>
        <mxCell id="tE2xpC-ojI5xECerwKau-5" value="&lt;font style=&quot;font-size: 14px; font-weight: normal;&quot;&gt;Presentation Logic&lt;/font&gt;" style="shape=folder;fontStyle=1;spacingTop=10;tabWidth=40;tabHeight=14;tabPosition=left;html=1;whiteSpace=wrap;verticalAlign=top;" parent="tE2xpC-ojI5xECerwKau-6" vertex="1">
          <mxGeometry x="197.2901554404145" y="48.75" width="148.4559585492228" height="101.25" as="geometry" />
        </mxCell>
        <mxCell id="tE2xpC-ojI5xECerwKau-7" value="" style="group" parent="1" vertex="1" connectable="0">
          <mxGeometry x="163.99999999999997" y="412" width="377" height="358.01" as="geometry" />
        </mxCell>
        <mxCell id="tE2xpC-ojI5xECerwKau-8" value="&lt;span style=&quot;font-size: 16px;&quot;&gt;Authentication/Login&lt;/span&gt;" style="shape=folder;fontStyle=1;spacingTop=10;tabWidth=40;tabHeight=14;tabPosition=left;html=1;whiteSpace=wrap;verticalAlign=top;" parent="tE2xpC-ojI5xECerwKau-7" vertex="1">
          <mxGeometry x="-13.67" y="1.88" width="388.67" height="356.13" as="geometry" />
        </mxCell>
        <mxCell id="tE2xpC-ojI5xECerwKau-9" value="&lt;font style=&quot;font-size: 14px; font-weight: normal;&quot;&gt;Authentication (User) Controller&lt;/font&gt;" style="shape=folder;fontStyle=1;spacingTop=10;tabWidth=40;tabHeight=14;tabPosition=left;html=1;whiteSpace=wrap;verticalAlign=top;" parent="tE2xpC-ojI5xECerwKau-7" vertex="1">
          <mxGeometry x="103.33020725388602" y="48.75" width="148.4559585492228" height="101.25" as="geometry" />
        </mxCell>
        <mxCell id="tE2xpC-ojI5xECerwKau-10" value="&lt;font style=&quot;font-size: 14px; font-weight: normal;&quot;&gt;Authen Service&lt;/font&gt;" style="shape=folder;fontStyle=1;spacingTop=10;tabWidth=40;tabHeight=14;tabPosition=left;html=1;whiteSpace=wrap;verticalAlign=top;" parent="tE2xpC-ojI5xECerwKau-7" vertex="1">
          <mxGeometry x="5.33" y="160" width="341.67" height="158" as="geometry" />
        </mxCell>
        <mxCell id="tE2xpC-ojI5xECerwKau-12" value="&lt;span style=&quot;font-size: 14px; font-weight: 400;&quot;&gt;JwtToken&lt;/span&gt;" style="shape=folder;fontStyle=1;spacingTop=10;tabWidth=40;tabHeight=14;tabPosition=left;html=1;whiteSpace=wrap;verticalAlign=top;" parent="tE2xpC-ojI5xECerwKau-7" vertex="1">
          <mxGeometry x="22.330207253885987" y="197" width="148.4559585492228" height="101.25" as="geometry" />
        </mxCell>
        <mxCell id="tE2xpC-ojI5xECerwKau-13" value="&lt;font style=&quot;font-size: 14px; font-weight: normal;&quot;&gt;TwoFactor&lt;br&gt;Authentication&lt;/font&gt;" style="shape=folder;fontStyle=1;spacingTop=10;tabWidth=40;tabHeight=14;tabPosition=left;html=1;whiteSpace=wrap;verticalAlign=top;" parent="tE2xpC-ojI5xECerwKau-7" vertex="1">
          <mxGeometry x="183.330207253886" y="197" width="148.4559585492228" height="101.25" as="geometry" />
        </mxCell>
        <mxCell id="tE2xpC-ojI5xECerwKau-14" value="" style="group" parent="1" vertex="1" connectable="0">
          <mxGeometry x="786" y="404" width="387.33" height="220" as="geometry" />
        </mxCell>
        <mxCell id="tE2xpC-ojI5xECerwKau-15" value="&lt;font style=&quot;font-size: 16px;&quot;&gt;Banking&lt;/font&gt;" style="shape=folder;fontStyle=1;spacingTop=10;tabWidth=40;tabHeight=14;tabPosition=left;html=1;whiteSpace=wrap;verticalAlign=top;" parent="tE2xpC-ojI5xECerwKau-14" vertex="1">
          <mxGeometry x="-14.048238341968913" y="2.1153846153846154" width="387.33000000000004" height="220" as="geometry" />
        </mxCell>
        <mxCell id="tE2xpC-ojI5xECerwKau-16" value="&lt;font style=&quot;font-size: 14px; font-weight: normal;&quot;&gt;BankController&lt;/font&gt;" style="shape=folder;fontStyle=1;spacingTop=10;tabWidth=40;tabHeight=14;tabPosition=left;html=1;whiteSpace=wrap;verticalAlign=top;" parent="tE2xpC-ojI5xECerwKau-14" vertex="1">
          <mxGeometry x="16.001134217506632" y="40" width="153.37035119363395" height="75.87179487179488" as="geometry" />
        </mxCell>
        <mxCell id="tE2xpC-ojI5xECerwKau-17" value="&lt;font style=&quot;font-size: 14px; font-weight: normal;&quot;&gt;BankTransaction&lt;/font&gt;" style="shape=folder;fontStyle=1;spacingTop=10;tabWidth=40;tabHeight=14;tabPosition=left;html=1;whiteSpace=wrap;verticalAlign=top;" parent="tE2xpC-ojI5xECerwKau-14" vertex="1">
          <mxGeometry x="204.99585066313" y="42.26" width="140.45592652519895" height="73.61538461538461" as="geometry" />
        </mxCell>
        <mxCell id="tE2xpC-ojI5xECerwKau-30" value="&lt;font style=&quot;font-size: 14px; font-weight: normal;&quot;&gt;BankService&lt;/font&gt;" style="shape=folder;fontStyle=1;spacingTop=10;tabWidth=40;tabHeight=14;tabPosition=left;html=1;whiteSpace=wrap;verticalAlign=top;" parent="tE2xpC-ojI5xECerwKau-14" vertex="1">
          <mxGeometry x="111.99982440318307" y="128.99564102564102" width="153.37035119363395" height="75.87179487179488" as="geometry" />
        </mxCell>
        <mxCell id="tE2xpC-ojI5xECerwKau-18" value="" style="group" parent="1" vertex="1" connectable="0">
          <mxGeometry x="905.67" y="1410" width="377" height="195" as="geometry" />
        </mxCell>
        <mxCell id="tE2xpC-ojI5xECerwKau-19" value="&lt;span style=&quot;font-size: 16px;&quot;&gt;DataAccess&lt;/span&gt;" style="shape=folder;fontStyle=1;spacingTop=10;tabWidth=40;tabHeight=14;tabPosition=left;html=1;whiteSpace=wrap;verticalAlign=top;" parent="tE2xpC-ojI5xECerwKau-18" vertex="1">
          <mxGeometry x="-13.67357512953368" y="1.875" width="377" height="195" as="geometry" />
        </mxCell>
        <mxCell id="tE2xpC-ojI5xECerwKau-20" value="&lt;font style=&quot;font-size: 14px; font-weight: normal;&quot;&gt;Interface&lt;/font&gt;" style="shape=folder;fontStyle=1;spacingTop=10;tabWidth=40;tabHeight=14;tabPosition=left;html=1;whiteSpace=wrap;verticalAlign=top;" parent="tE2xpC-ojI5xECerwKau-18" vertex="1">
          <mxGeometry x="11.720207253886011" y="48.75" width="148.4559585492228" height="101.25" as="geometry" />
        </mxCell>
        <mxCell id="tE2xpC-ojI5xECerwKau-21" value="&lt;font style=&quot;font-size: 14px; font-weight: normal;&quot;&gt;Repository&lt;/font&gt;" style="shape=folder;fontStyle=1;spacingTop=10;tabWidth=40;tabHeight=14;tabPosition=left;html=1;whiteSpace=wrap;verticalAlign=top;" parent="tE2xpC-ojI5xECerwKau-18" vertex="1">
          <mxGeometry x="197.2901554404145" y="48.75" width="148.4559585492228" height="101.25" as="geometry" />
        </mxCell>
        <mxCell id="tE2xpC-ojI5xECerwKau-22" value="&lt;font style=&quot;font-size: 16px;&quot;&gt;Data Tranfer Object&lt;/font&gt;" style="shape=folder;fontStyle=1;spacingTop=10;tabWidth=40;tabHeight=14;tabPosition=left;html=1;whiteSpace=wrap;strokeColor=default;align=center;verticalAlign=top;fontFamily=Helvetica;fontSize=12;fontColor=default;fillColor=default;" parent="1" vertex="1">
          <mxGeometry x="638" y="1174" width="261" height="96" as="geometry" />
        </mxCell>
        <mxCell id="tE2xpC-ojI5xECerwKau-25" value="" style="group" parent="1" vertex="1" connectable="0">
          <mxGeometry x="1198" y="1159" width="213" height="150" as="geometry" />
        </mxCell>
        <mxCell id="tE2xpC-ojI5xECerwKau-23" value="&lt;font style=&quot;font-size: 16px;&quot;&gt;Bussiness Object&lt;/font&gt;" style="shape=folder;fontStyle=1;spacingTop=10;tabWidth=40;tabHeight=14;tabPosition=left;html=1;whiteSpace=wrap;strokeColor=default;align=center;verticalAlign=top;fontFamily=Helvetica;fontSize=12;fontColor=default;fillColor=default;" parent="tE2xpC-ojI5xECerwKau-25" vertex="1">
          <mxGeometry width="213" height="150" as="geometry" />
        </mxCell>
        <mxCell id="tE2xpC-ojI5xECerwKau-24" value="Entity" style="shape=folder;fontStyle=1;spacingTop=10;tabWidth=40;tabHeight=14;tabPosition=left;html=1;whiteSpace=wrap;strokeColor=default;align=center;verticalAlign=top;fontFamily=Helvetica;fontSize=12;fontColor=default;fillColor=default;" parent="tE2xpC-ojI5xECerwKau-25" vertex="1">
          <mxGeometry x="35.66999999999996" y="49" width="141.33" height="79" as="geometry" />
        </mxCell>
        <mxCell id="tE2xpC-ojI5xECerwKau-29" value="Mail Service&amp;nbsp;" style="shape=folder;fontStyle=1;spacingTop=10;tabWidth=40;tabHeight=14;tabPosition=left;html=1;whiteSpace=wrap;strokeColor=default;align=center;verticalAlign=top;fontFamily=Helvetica;fontSize=12;fontColor=default;fillColor=default;" parent="1" vertex="1">
          <mxGeometry x="593" y="413" width="114" height="65" as="geometry" />
        </mxCell>
        <mxCell id="tE2xpC-ojI5xECerwKau-32" value="&lt;font style=&quot;font-size: 16px;&quot;&gt;Shipping&lt;/font&gt;" style="shape=folder;fontStyle=1;spacingTop=10;tabWidth=40;tabHeight=14;tabPosition=left;html=1;whiteSpace=wrap;strokeColor=default;align=center;verticalAlign=top;fontFamily=Helvetica;fontSize=12;fontColor=default;fillColor=default;" parent="1" vertex="1">
          <mxGeometry x="1238" y="399" width="316" height="214" as="geometry" />
        </mxCell>
        <mxCell id="tE2xpC-ojI5xECerwKau-33" value="&lt;span style=&quot;font-size: 16px;&quot;&gt;Order&lt;/span&gt;" style="shape=folder;fontStyle=1;spacingTop=10;tabWidth=40;tabHeight=14;tabPosition=left;html=1;whiteSpace=wrap;strokeColor=default;align=center;verticalAlign=top;fontFamily=Helvetica;fontSize=12;fontColor=default;fillColor=default;" parent="1" vertex="1">
          <mxGeometry x="1647" y="401" width="316" height="214" as="geometry" />
        </mxCell>
        <mxCell id="tE2xpC-ojI5xECerwKau-34" value="&lt;span style=&quot;font-size: 16px;&quot;&gt;Technical Support&lt;/span&gt;" style="shape=folder;fontStyle=1;spacingTop=10;tabWidth=40;tabHeight=14;tabPosition=left;html=1;whiteSpace=wrap;strokeColor=default;align=center;verticalAlign=top;fontFamily=Helvetica;fontSize=12;fontColor=default;fillColor=default;" parent="1" vertex="1">
          <mxGeometry x="1241" y="721" width="316" height="214" as="geometry" />
        </mxCell>
        <mxCell id="tE2xpC-ojI5xECerwKau-35" value="&lt;span style=&quot;font-size: 16px;&quot;&gt;Chat&lt;/span&gt;" style="shape=folder;fontStyle=1;spacingTop=10;tabWidth=40;tabHeight=14;tabPosition=left;html=1;whiteSpace=wrap;strokeColor=default;align=center;verticalAlign=top;fontFamily=Helvetica;fontSize=12;fontColor=default;fillColor=default;" parent="1" vertex="1">
          <mxGeometry x="1650" y="725" width="316" height="214" as="geometry" />
        </mxCell>
        <mxCell id="tE2xpC-ojI5xECerwKau-36" value="&lt;span style=&quot;font-size: 16px;&quot;&gt;Asset Management&lt;/span&gt;" style="shape=folder;fontStyle=1;spacingTop=10;tabWidth=40;tabHeight=14;tabPosition=left;html=1;whiteSpace=wrap;strokeColor=default;align=center;verticalAlign=top;fontFamily=Helvetica;fontSize=12;fontColor=default;fillColor=default;" parent="1" vertex="1">
          <mxGeometry x="803.5" y="721" width="316" height="214" as="geometry" />
        </mxCell>
        <mxCell id="tE2xpC-ojI5xECerwKau-37" value="&lt;font style=&quot;font-size: 16px;&quot;&gt;Image Service&lt;br&gt;&lt;/font&gt;" style="shape=folder;fontStyle=1;spacingTop=10;tabWidth=40;tabHeight=14;tabPosition=left;html=1;whiteSpace=wrap;strokeColor=default;align=center;verticalAlign=top;fontFamily=Helvetica;fontSize=12;fontColor=default;fillColor=default;" parent="1" vertex="1">
          <mxGeometry x="2195" y="553" width="182" height="112" as="geometry" />
        </mxCell>
      </root>
    </mxGraphModel>
  </diagram>
  <diagram id="FH0nb3U4BQD42qwX8t6F" name="Sequence_Diagram">
    <mxGraphModel dx="1463" dy="795" grid="1" gridSize="10" guides="1" tooltips="1" connect="1" arrows="1" fold="1" page="1" pageScale="1" pageWidth="1654" pageHeight="2336" math="0" shadow="0">
      <root>
        <mxCell id="0" />
        <mxCell id="1" parent="0" />
        <mxCell id="m0rzxIkNzL2a3wfJxzck-1" value="&lt;font style=&quot;font-size: 15px;&quot;&gt;Cusomter/Seller&lt;/font&gt;" style="shape=umlActor;verticalLabelPosition=bottom;verticalAlign=top;html=1;outlineConnect=0;" vertex="1" parent="1">
          <mxGeometry x="160" y="880" width="70" height="120" as="geometry" />
        </mxCell>
        <mxCell id="m0rzxIkNzL2a3wfJxzck-4" value="&lt;font style=&quot;font-size: 16px;&quot;&gt;Login GUI&lt;/font&gt;" style="rounded=0;whiteSpace=wrap;html=1;" vertex="1" parent="1">
          <mxGeometry x="410" y="920" width="120" height="60" as="geometry" />
        </mxCell>
        <mxCell id="m0rzxIkNzL2a3wfJxzck-5" value="&lt;span style=&quot;font-size: 16px;&quot;&gt;Presentation Logic&lt;/span&gt;" style="rounded=0;whiteSpace=wrap;html=1;" vertex="1" parent="1">
          <mxGeometry x="670" y="920" width="120" height="60" as="geometry" />
        </mxCell>
        <mxCell id="A0_r6HF5ietANmtNoq24-1" value="" style="endArrow=none;dashed=1;html=1;rounded=0;fontFamily=Helvetica;fontSize=12;fontColor=default;strokeWidth=2;" edge="1" parent="1">
          <mxGeometry width="50" height="50" relative="1" as="geometry">
            <mxPoint x="200" y="2450" as="sourcePoint" />
            <mxPoint x="200" y="1000" as="targetPoint" />
          </mxGeometry>
        </mxCell>
        <mxCell id="A0_r6HF5ietANmtNoq24-2" value="" style="endArrow=none;dashed=1;html=1;rounded=0;fontFamily=Helvetica;fontSize=12;fontColor=default;strokeWidth=2;entryX=0.5;entryY=1;entryDx=0;entryDy=0;" edge="1" parent="1" target="m0rzxIkNzL2a3wfJxzck-4">
          <mxGeometry width="50" height="50" relative="1" as="geometry">
            <mxPoint x="470" y="2450" as="sourcePoint" />
            <mxPoint x="500" y="1010" as="targetPoint" />
          </mxGeometry>
        </mxCell>
        <mxCell id="A0_r6HF5ietANmtNoq24-3" value="" style="html=1;points=[[0,0,0,0,5],[0,1,0,0,-5],[1,0,0,0,5],[1,1,0,0,-5]];perimeter=orthogonalPerimeter;outlineConnect=0;targetShapes=umlLifeline;portConstraint=eastwest;newEdgeStyle={&quot;curved&quot;:0,&quot;rounded&quot;:0};rounded=0;strokeColor=default;align=center;verticalAlign=middle;fontFamily=Helvetica;fontSize=12;fontColor=default;fillColor=default;" vertex="1" parent="1">
          <mxGeometry x="462" y="1050" width="15" height="1250" as="geometry" />
        </mxCell>
        <mxCell id="A0_r6HF5ietANmtNoq24-5" value="" style="endArrow=block;html=1;rounded=0;fontFamily=Helvetica;fontSize=12;fontColor=default;endSize=14;endFill=1;" edge="1" parent="1" target="A0_r6HF5ietANmtNoq24-3">
          <mxGeometry width="50" height="50" relative="1" as="geometry">
            <mxPoint x="200" y="1090" as="sourcePoint" />
            <mxPoint x="460" y="1090" as="targetPoint" />
          </mxGeometry>
        </mxCell>
        <mxCell id="A0_r6HF5ietANmtNoq24-6" value="&lt;font style=&quot;font-size: 14px;&quot;&gt;Enter login information&lt;/font&gt;" style="edgeLabel;html=1;align=center;verticalAlign=middle;resizable=0;points=[];fontSize=12;fontFamily=Helvetica;fontColor=default;" vertex="1" connectable="0" parent="A0_r6HF5ietANmtNoq24-5">
          <mxGeometry x="-0.0113" y="-1" relative="1" as="geometry">
            <mxPoint y="-13" as="offset" />
          </mxGeometry>
        </mxCell>
        <mxCell id="c9_cywlhfJEeOuh6lB4w-1" value="" style="endArrow=none;dashed=1;html=1;rounded=0;fontFamily=Helvetica;fontSize=12;fontColor=default;strokeWidth=2;entryX=0.5;entryY=1;entryDx=0;entryDy=0;" edge="1" parent="1">
          <mxGeometry width="50" height="50" relative="1" as="geometry">
            <mxPoint x="730" y="2450" as="sourcePoint" />
            <mxPoint x="730.5" y="980" as="targetPoint" />
          </mxGeometry>
        </mxCell>
        <mxCell id="c9_cywlhfJEeOuh6lB4w-2" value="" style="html=1;points=[[0,0,0,0,5],[0,1,0,0,-5],[1,0,0,0,5],[1,1,0,0,-5]];perimeter=orthogonalPerimeter;outlineConnect=0;targetShapes=umlLifeline;portConstraint=eastwest;newEdgeStyle={&quot;curved&quot;:0,&quot;rounded&quot;:0};rounded=0;strokeColor=default;align=center;verticalAlign=middle;fontFamily=Helvetica;fontSize=12;fontColor=default;fillColor=default;" vertex="1" parent="1">
          <mxGeometry x="721.5" y="1060" width="15" height="1310" as="geometry" />
        </mxCell>
        <mxCell id="c9_cywlhfJEeOuh6lB4w-3" value="" style="endArrow=block;html=1;rounded=0;fontFamily=Helvetica;fontSize=12;fontColor=default;endSize=14;endFill=1;" edge="1" parent="1" source="A0_r6HF5ietANmtNoq24-3">
          <mxGeometry width="50" height="50" relative="1" as="geometry">
            <mxPoint x="490" y="1100" as="sourcePoint" />
            <mxPoint x="720" y="1100" as="targetPoint" />
          </mxGeometry>
        </mxCell>
        <mxCell id="c9_cywlhfJEeOuh6lB4w-4" value="&lt;span style=&quot;font-size: 14px;&quot;&gt;Send user account ìnformation&lt;/span&gt;" style="edgeLabel;html=1;align=center;verticalAlign=middle;resizable=0;points=[];fontSize=12;fontFamily=Helvetica;fontColor=default;" vertex="1" connectable="0" parent="c9_cywlhfJEeOuh6lB4w-3">
          <mxGeometry x="-0.0113" y="-1" relative="1" as="geometry">
            <mxPoint y="-13" as="offset" />
          </mxGeometry>
        </mxCell>
        <mxCell id="WSxLw_TWdBIhVjpOE-Vx-1" value="&lt;span style=&quot;font-size: 16px;&quot;&gt;Login(User) Controller&lt;/span&gt;" style="rounded=0;whiteSpace=wrap;html=1;" vertex="1" parent="1">
          <mxGeometry x="950" y="920" width="120" height="60" as="geometry" />
        </mxCell>
        <mxCell id="WSxLw_TWdBIhVjpOE-Vx-2" value="" style="endArrow=none;dashed=1;html=1;rounded=0;fontFamily=Helvetica;fontSize=12;fontColor=default;strokeWidth=2;entryX=0.5;entryY=1;entryDx=0;entryDy=0;" edge="1" parent="1" source="WSxLw_TWdBIhVjpOE-Vx-3">
          <mxGeometry width="50" height="50" relative="1" as="geometry">
            <mxPoint x="1010.5" y="1920" as="sourcePoint" />
            <mxPoint x="1010.5" y="980" as="targetPoint" />
          </mxGeometry>
        </mxCell>
        <mxCell id="8vVMKyhHDqcBIdHinc6e-1" value="" style="html=1;points=[[0,0,0,0,5],[0,1,0,0,-5],[1,0,0,0,5],[1,1,0,0,-5]];perimeter=orthogonalPerimeter;outlineConnect=0;targetShapes=umlLifeline;portConstraint=eastwest;newEdgeStyle={&quot;curved&quot;:0,&quot;rounded&quot;:0};rounded=0;strokeColor=default;align=center;verticalAlign=middle;fontFamily=Helvetica;fontSize=12;fontColor=default;fillColor=default;" vertex="1" parent="1">
          <mxGeometry x="730" y="1140" width="15" height="240" as="geometry" />
        </mxCell>
        <mxCell id="8vVMKyhHDqcBIdHinc6e-2" value="&lt;span style=&quot;font-size: 14px;&quot;&gt;&amp;nbsp;check validate input&lt;/span&gt;" style="html=1;align=left;spacingLeft=2;endArrow=block;rounded=0;edgeStyle=orthogonalEdgeStyle;curved=0;rounded=0;labelBackgroundColor=default;strokeColor=default;verticalAlign=middle;fontFamily=Helvetica;fontSize=12;fontColor=default;endSize=14;shape=connector;" edge="1" parent="1">
          <mxGeometry relative="1" as="geometry">
            <mxPoint x="740" y="1105" as="sourcePoint" />
            <Array as="points">
              <mxPoint x="770" y="1105" />
              <mxPoint x="770" y="1165" />
            </Array>
            <mxPoint x="750" y="1165" as="targetPoint" />
          </mxGeometry>
        </mxCell>
        <mxCell id="8vVMKyhHDqcBIdHinc6e-3" value="par" style="shape=umlFrame;whiteSpace=wrap;html=1;pointerEvents=0;rounded=0;strokeColor=default;align=center;verticalAlign=middle;fontFamily=Helvetica;fontSize=12;fontColor=default;fillColor=default;" vertex="1" parent="1">
          <mxGeometry x="70" y="1150" width="740" height="220" as="geometry" />
        </mxCell>
        <mxCell id="8vVMKyhHDqcBIdHinc6e-5" value="opt" style="shape=umlFrame;whiteSpace=wrap;html=1;pointerEvents=0;rounded=0;strokeColor=default;align=center;verticalAlign=middle;fontFamily=Helvetica;fontSize=12;fontColor=default;fillColor=default;" vertex="1" parent="1">
          <mxGeometry x="130" y="1185" width="660" height="75" as="geometry" />
        </mxCell>
        <mxCell id="8vVMKyhHDqcBIdHinc6e-6" value="" style="endArrow=block;html=1;rounded=0;labelBackgroundColor=default;strokeColor=default;align=center;verticalAlign=middle;fontFamily=Helvetica;fontSize=12;fontColor=default;endSize=14;shape=connector;endFill=1;" edge="1" parent="1">
          <mxGeometry width="50" height="50" relative="1" as="geometry">
            <mxPoint x="150" y="516" as="sourcePoint" />
            <mxPoint x="260" y="516" as="targetPoint" />
          </mxGeometry>
        </mxCell>
        <mxCell id="8vVMKyhHDqcBIdHinc6e-7" value="Tin nhăn đồng bộ" style="text;html=1;align=center;verticalAlign=middle;resizable=0;points=[];autosize=1;strokeColor=none;fillColor=none;fontSize=12;fontFamily=Helvetica;fontColor=default;" vertex="1" parent="1">
          <mxGeometry x="260" y="500" width="120" height="30" as="geometry" />
        </mxCell>
        <mxCell id="8vVMKyhHDqcBIdHinc6e-8" value="" style="endArrow=open;html=1;rounded=0;labelBackgroundColor=default;strokeColor=default;align=center;verticalAlign=middle;fontFamily=Helvetica;fontSize=12;fontColor=default;endSize=14;shape=connector;endFill=0;" edge="1" parent="1">
          <mxGeometry width="50" height="50" relative="1" as="geometry">
            <mxPoint x="150" y="561" as="sourcePoint" />
            <mxPoint x="260" y="561" as="targetPoint" />
          </mxGeometry>
        </mxCell>
        <mxCell id="8vVMKyhHDqcBIdHinc6e-9" value="Tin nhắn bất đồng bộ" style="text;html=1;align=center;verticalAlign=middle;resizable=0;points=[];autosize=1;strokeColor=none;fillColor=none;fontSize=12;fontFamily=Helvetica;fontColor=default;" vertex="1" parent="1">
          <mxGeometry x="260" y="547" width="140" height="30" as="geometry" />
        </mxCell>
        <mxCell id="8vVMKyhHDqcBIdHinc6e-11" value="" style="endArrow=open;html=1;rounded=0;labelBackgroundColor=default;strokeColor=default;align=center;verticalAlign=middle;fontFamily=Helvetica;fontSize=12;fontColor=default;endSize=14;shape=connector;endFill=0;dashed=1;" edge="1" parent="1">
          <mxGeometry width="50" height="50" relative="1" as="geometry">
            <mxPoint x="150" y="610" as="sourcePoint" />
            <mxPoint x="260" y="610" as="targetPoint" />
          </mxGeometry>
        </mxCell>
        <mxCell id="8vVMKyhHDqcBIdHinc6e-12" value="Tin nhắn phản hồi" style="text;html=1;align=center;verticalAlign=middle;resizable=0;points=[];autosize=1;strokeColor=none;fillColor=none;fontSize=12;fontFamily=Helvetica;fontColor=default;" vertex="1" parent="1">
          <mxGeometry x="265" y="596" width="120" height="30" as="geometry" />
        </mxCell>
        <mxCell id="8vVMKyhHDqcBIdHinc6e-13" value="Service" style="rounded=0;whiteSpace=wrap;html=1;strokeColor=default;align=center;verticalAlign=middle;fontFamily=Helvetica;fontSize=12;fontColor=default;fillColor=default;" vertex="1" parent="1">
          <mxGeometry x="570" y="420" width="120" height="60" as="geometry" />
        </mxCell>
        <mxCell id="8vVMKyhHDqcBIdHinc6e-15" value="" style="endArrow=none;html=1;rounded=0;labelBackgroundColor=default;strokeColor=default;align=center;verticalAlign=middle;fontFamily=Helvetica;fontSize=12;fontColor=default;endSize=14;shape=connector;entryX=0.5;entryY=1;entryDx=0;entryDy=0;dashed=1;strokeWidth=2;" edge="1" parent="1" target="8vVMKyhHDqcBIdHinc6e-13">
          <mxGeometry width="50" height="50" relative="1" as="geometry">
            <mxPoint x="630" y="630" as="sourcePoint" />
            <mxPoint x="670" y="560" as="targetPoint" />
          </mxGeometry>
        </mxCell>
        <mxCell id="8vVMKyhHDqcBIdHinc6e-16" value="" style="shape=umlDestroy;whiteSpace=wrap;html=1;strokeWidth=3;targetShapes=umlLifeline;rounded=0;strokeColor=default;align=center;verticalAlign=middle;fontFamily=Helvetica;fontSize=12;fontColor=default;fillColor=default;" vertex="1" parent="1">
          <mxGeometry x="615" y="620" width="30" height="30" as="geometry" />
        </mxCell>
        <mxCell id="8vVMKyhHDqcBIdHinc6e-17" value="Ngưng, hết dùng" style="text;html=1;align=center;verticalAlign=middle;resizable=0;points=[];autosize=1;strokeColor=none;fillColor=none;fontSize=12;fontFamily=Helvetica;fontColor=default;" vertex="1" parent="1">
          <mxGeometry x="645" y="620" width="110" height="30" as="geometry" />
        </mxCell>
        <mxCell id="8vVMKyhHDqcBIdHinc6e-19" value="Message không biết người gửi" style="text;html=1;align=center;verticalAlign=middle;resizable=0;points=[];autosize=1;strokeColor=none;fillColor=none;fontSize=12;fontFamily=Helvetica;fontColor=default;" vertex="1" parent="1">
          <mxGeometry x="260" y="446" width="190" height="30" as="geometry" />
        </mxCell>
        <mxCell id="8vVMKyhHDqcBIdHinc6e-21" value="lost" style="edgeStyle=none;html=1;endArrow=sysMLLost;endSize=12;verticalAlign=bottom;rounded=0;labelBackgroundColor=default;strokeColor=default;align=center;fontFamily=Helvetica;fontSize=12;fontColor=default;shape=connector;" edge="1" parent="1">
          <mxGeometry width="160" relative="1" as="geometry">
            <mxPoint x="100" y="400" as="sourcePoint" />
            <mxPoint x="260" y="400" as="targetPoint" />
          </mxGeometry>
        </mxCell>
        <mxCell id="8vVMKyhHDqcBIdHinc6e-22" value="found" style="edgeStyle=none;html=1;endArrow=open;endSize=12;verticalAlign=bottom;startArrow=sysMLFound;startSize=12;rounded=0;labelBackgroundColor=default;strokeColor=default;align=center;fontFamily=Helvetica;fontSize=12;fontColor=default;shape=connector;" edge="1" parent="1">
          <mxGeometry width="160" relative="1" as="geometry">
            <mxPoint x="100" y="460.58" as="sourcePoint" />
            <mxPoint x="260" y="460.58" as="targetPoint" />
          </mxGeometry>
        </mxCell>
        <mxCell id="8vVMKyhHDqcBIdHinc6e-23" value="Message không biết người nhận" style="text;html=1;align=center;verticalAlign=middle;resizable=0;points=[];autosize=1;strokeColor=none;fillColor=none;fontSize=12;fontFamily=Helvetica;fontColor=default;" vertex="1" parent="1">
          <mxGeometry x="262" y="385" width="200" height="30" as="geometry" />
        </mxCell>
        <mxCell id="8vVMKyhHDqcBIdHinc6e-25" value="&lt;font style=&quot;font-size: 14px;&quot;&gt;[validate fail &amp;amp;&amp;amp; username == empty]&lt;/font&gt;" style="text;html=1;align=center;verticalAlign=middle;resizable=0;points=[];autosize=1;strokeColor=none;fillColor=none;fontSize=12;fontFamily=Helvetica;fontColor=default;" vertex="1" parent="1">
          <mxGeometry x="472.5" y="1185" width="250" height="30" as="geometry" />
        </mxCell>
        <mxCell id="8vVMKyhHDqcBIdHinc6e-26" value="" style="endArrow=open;html=1;rounded=0;labelBackgroundColor=default;strokeColor=default;align=center;verticalAlign=middle;fontFamily=Helvetica;fontSize=12;fontColor=default;endSize=14;shape=connector;endFill=0;dashed=1;" edge="1" parent="1">
          <mxGeometry width="50" height="50" relative="1" as="geometry">
            <mxPoint x="720" y="1235" as="sourcePoint" />
            <mxPoint x="477" y="1234.5799999999997" as="targetPoint" />
          </mxGeometry>
        </mxCell>
        <mxCell id="8vVMKyhHDqcBIdHinc6e-27" value="&lt;font style=&quot;font-size: 12px;&quot;&gt;Response username require&lt;/font&gt;" style="edgeLabel;html=1;align=center;verticalAlign=middle;resizable=0;points=[];fontSize=12;fontFamily=Helvetica;fontColor=default;" vertex="1" connectable="0" parent="8vVMKyhHDqcBIdHinc6e-26">
          <mxGeometry x="-0.0014" relative="1" as="geometry">
            <mxPoint x="12" y="-9" as="offset" />
          </mxGeometry>
        </mxCell>
        <mxCell id="8vVMKyhHDqcBIdHinc6e-28" value="" style="endArrow=open;html=1;rounded=0;labelBackgroundColor=default;strokeColor=default;align=center;verticalAlign=middle;fontFamily=Helvetica;fontSize=12;fontColor=default;endSize=14;shape=connector;endFill=0;dashed=1;" edge="1" parent="1" source="A0_r6HF5ietANmtNoq24-3">
          <mxGeometry width="50" height="50" relative="1" as="geometry">
            <mxPoint x="441.5" y="1244.4" as="sourcePoint" />
            <mxPoint x="198.5" y="1243.9799999999998" as="targetPoint" />
          </mxGeometry>
        </mxCell>
        <mxCell id="8vVMKyhHDqcBIdHinc6e-29" value="&lt;font style=&quot;font-size: 12px;&quot;&gt;Response message username require&lt;/font&gt;" style="edgeLabel;html=1;align=center;verticalAlign=middle;resizable=0;points=[];fontSize=12;fontFamily=Helvetica;fontColor=default;" vertex="1" connectable="0" parent="8vVMKyhHDqcBIdHinc6e-28">
          <mxGeometry x="-0.0014" relative="1" as="geometry">
            <mxPoint x="12" y="-9" as="offset" />
          </mxGeometry>
        </mxCell>
        <mxCell id="8vVMKyhHDqcBIdHinc6e-30" value="opt" style="shape=umlFrame;whiteSpace=wrap;html=1;pointerEvents=0;rounded=0;strokeColor=default;align=center;verticalAlign=middle;fontFamily=Helvetica;fontSize=12;fontColor=default;fillColor=default;" vertex="1" parent="1">
          <mxGeometry x="130" y="1275" width="660" height="75" as="geometry" />
        </mxCell>
        <mxCell id="8vVMKyhHDqcBIdHinc6e-31" value="&lt;font style=&quot;font-size: 14px;&quot;&gt;[validate fail &amp;amp;&amp;amp; password == empty]&lt;/font&gt;" style="text;html=1;align=center;verticalAlign=middle;resizable=0;points=[];autosize=1;strokeColor=none;fillColor=none;fontSize=12;fontFamily=Helvetica;fontColor=default;" vertex="1" parent="1">
          <mxGeometry x="472.5" y="1275" width="250" height="30" as="geometry" />
        </mxCell>
        <mxCell id="8vVMKyhHDqcBIdHinc6e-34" value="" style="endArrow=open;html=1;rounded=0;labelBackgroundColor=default;strokeColor=default;align=center;verticalAlign=middle;fontFamily=Helvetica;fontSize=12;fontColor=default;endSize=14;shape=connector;endFill=0;dashed=1;" edge="1" parent="1">
          <mxGeometry width="50" height="50" relative="1" as="geometry">
            <mxPoint x="720" y="1324.57" as="sourcePoint" />
            <mxPoint x="477" y="1324.1499999999996" as="targetPoint" />
          </mxGeometry>
        </mxCell>
        <mxCell id="8vVMKyhHDqcBIdHinc6e-35" value="&lt;font style=&quot;font-size: 12px;&quot;&gt;Response password require&lt;/font&gt;" style="edgeLabel;html=1;align=center;verticalAlign=middle;resizable=0;points=[];fontSize=12;fontFamily=Helvetica;fontColor=default;" vertex="1" connectable="0" parent="8vVMKyhHDqcBIdHinc6e-34">
          <mxGeometry x="-0.0014" relative="1" as="geometry">
            <mxPoint x="12" y="-9" as="offset" />
          </mxGeometry>
        </mxCell>
        <mxCell id="8vVMKyhHDqcBIdHinc6e-36" value="" style="endArrow=open;html=1;rounded=0;labelBackgroundColor=default;strokeColor=default;align=center;verticalAlign=middle;fontFamily=Helvetica;fontSize=12;fontColor=default;endSize=14;shape=connector;endFill=0;dashed=1;" edge="1" parent="1">
          <mxGeometry width="50" height="50" relative="1" as="geometry">
            <mxPoint x="461.75" y="1340.02" as="sourcePoint" />
            <mxPoint x="198.25" y="1339.9999999999998" as="targetPoint" />
          </mxGeometry>
        </mxCell>
        <mxCell id="8vVMKyhHDqcBIdHinc6e-37" value="&lt;font style=&quot;font-size: 12px;&quot;&gt;Response message password require&lt;/font&gt;" style="edgeLabel;html=1;align=center;verticalAlign=middle;resizable=0;points=[];fontSize=12;fontFamily=Helvetica;fontColor=default;" vertex="1" connectable="0" parent="8vVMKyhHDqcBIdHinc6e-36">
          <mxGeometry x="-0.0014" relative="1" as="geometry">
            <mxPoint x="12" y="-9" as="offset" />
          </mxGeometry>
        </mxCell>
        <mxCell id="8vVMKyhHDqcBIdHinc6e-38" value="" style="endArrow=none;dashed=1;html=1;rounded=0;fontFamily=Helvetica;fontSize=12;fontColor=default;strokeWidth=2;entryX=0.5;entryY=1;entryDx=0;entryDy=0;" edge="1" parent="1" target="WSxLw_TWdBIhVjpOE-Vx-3">
          <mxGeometry width="50" height="50" relative="1" as="geometry">
            <mxPoint x="1010" y="2450" as="sourcePoint" />
            <mxPoint x="1010.5" y="980" as="targetPoint" />
          </mxGeometry>
        </mxCell>
        <mxCell id="WSxLw_TWdBIhVjpOE-Vx-3" value="" style="html=1;points=[[0,0,0,0,5],[0,1,0,0,-5],[1,0,0,0,5],[1,1,0,0,-5]];perimeter=orthogonalPerimeter;outlineConnect=0;targetShapes=umlLifeline;portConstraint=eastwest;newEdgeStyle={&quot;curved&quot;:0,&quot;rounded&quot;:0};rounded=0;strokeColor=default;align=center;verticalAlign=middle;fontFamily=Helvetica;fontSize=12;fontColor=default;fillColor=default;" vertex="1" parent="1">
          <mxGeometry x="1002.5" y="1410" width="15" height="860" as="geometry" />
        </mxCell>
        <mxCell id="8vVMKyhHDqcBIdHinc6e-39" value="" style="endArrow=open;html=1;rounded=0;fontFamily=Helvetica;fontSize=12;fontColor=default;endSize=14;endFill=0;" edge="1" parent="1">
          <mxGeometry width="50" height="50" relative="1" as="geometry">
            <mxPoint x="737.5" y="1424.58" as="sourcePoint" />
            <mxPoint x="1000" y="1425" as="targetPoint" />
          </mxGeometry>
        </mxCell>
        <mxCell id="8vVMKyhHDqcBIdHinc6e-40" value="&lt;span style=&quot;font-size: 14px;&quot;&gt;Call API : SignIn()&lt;/span&gt;" style="edgeLabel;html=1;align=center;verticalAlign=middle;resizable=0;points=[];fontSize=12;fontFamily=Helvetica;fontColor=default;" vertex="1" connectable="0" parent="8vVMKyhHDqcBIdHinc6e-39">
          <mxGeometry x="-0.0113" y="-1" relative="1" as="geometry">
            <mxPoint y="-13" as="offset" />
          </mxGeometry>
        </mxCell>
        <mxCell id="7tLfOx50Y14fj7iIpUp_-1" value="&lt;span style=&quot;font-size: 16px;&quot;&gt;Login(User) Bussiness&lt;/span&gt;" style="rounded=0;whiteSpace=wrap;html=1;fillColor=#f8cecc;strokeColor=#b85450;" vertex="1" parent="1">
          <mxGeometry x="1230" y="920" width="120" height="60" as="geometry" />
        </mxCell>
        <mxCell id="7tLfOx50Y14fj7iIpUp_-2" value="" style="endArrow=none;dashed=1;html=1;rounded=0;fontFamily=Helvetica;fontSize=12;fontColor=default;strokeWidth=2;entryX=0.5;entryY=1;entryDx=0;entryDy=0;" edge="1" parent="1">
          <mxGeometry width="50" height="50" relative="1" as="geometry">
            <mxPoint x="1290" y="2440.8333333333335" as="sourcePoint" />
            <mxPoint x="1290.5" y="980" as="targetPoint" />
          </mxGeometry>
        </mxCell>
        <mxCell id="7tLfOx50Y14fj7iIpUp_-3" value="" style="html=1;points=[[0,0,0,0,5],[0,1,0,0,-5],[1,0,0,0,5],[1,1,0,0,-5]];perimeter=orthogonalPerimeter;outlineConnect=0;targetShapes=umlLifeline;portConstraint=eastwest;newEdgeStyle={&quot;curved&quot;:0,&quot;rounded&quot;:0};rounded=0;strokeColor=default;align=center;verticalAlign=middle;fontFamily=Helvetica;fontSize=12;fontColor=default;fillColor=default;" vertex="1" parent="1">
          <mxGeometry x="1282.5" y="1400" width="15" height="220" as="geometry" />
        </mxCell>
        <mxCell id="7tLfOx50Y14fj7iIpUp_-5" value="" style="endArrow=block;html=1;rounded=0;fontFamily=Helvetica;fontSize=12;fontColor=default;endSize=14;endFill=1;" edge="1" parent="1">
          <mxGeometry width="50" height="50" relative="1" as="geometry">
            <mxPoint x="1017.5" y="1450" as="sourcePoint" />
            <mxPoint x="1280" y="1450.42" as="targetPoint" />
          </mxGeometry>
        </mxCell>
        <mxCell id="7tLfOx50Y14fj7iIpUp_-6" value="&lt;font style=&quot;font-size: 14px;&quot;&gt;&lt;font style=&quot;font-size: 14px;&quot;&gt;Request&lt;br&gt;GetUserByUsernameAndPassword&lt;/font&gt;()&lt;/font&gt;" style="edgeLabel;html=1;align=center;verticalAlign=middle;resizable=0;points=[];fontSize=12;fontFamily=Helvetica;fontColor=default;" vertex="1" connectable="0" parent="7tLfOx50Y14fj7iIpUp_-5">
          <mxGeometry x="-0.0113" y="-1" relative="1" as="geometry">
            <mxPoint y="-22" as="offset" />
          </mxGeometry>
        </mxCell>
        <mxCell id="7tLfOx50Y14fj7iIpUp_-7" value="&lt;span style=&quot;font-size: 16px;&quot;&gt;Login(User)&lt;br&gt;DAO&lt;br&gt;&lt;/span&gt;" style="rounded=0;whiteSpace=wrap;html=1;" vertex="1" parent="1">
          <mxGeometry x="1487" y="920" width="120" height="60" as="geometry" />
        </mxCell>
        <mxCell id="7tLfOx50Y14fj7iIpUp_-8" value="" style="endArrow=none;dashed=1;html=1;rounded=0;fontFamily=Helvetica;fontSize=12;fontColor=default;strokeWidth=2;entryX=0.5;entryY=1;entryDx=0;entryDy=0;" edge="1" parent="1" source="7tLfOx50Y14fj7iIpUp_-9">
          <mxGeometry width="50" height="50" relative="1" as="geometry">
            <mxPoint x="1548" y="1920.8333333333333" as="sourcePoint" />
            <mxPoint x="1547.5" y="980" as="targetPoint" />
          </mxGeometry>
        </mxCell>
        <mxCell id="7tLfOx50Y14fj7iIpUp_-10" value="" style="endArrow=none;dashed=1;html=1;rounded=0;fontFamily=Helvetica;fontSize=12;fontColor=default;strokeWidth=2;entryX=0.5;entryY=1;entryDx=0;entryDy=0;" edge="1" parent="1" source="6vzCNUbuz62tQ9CqGoHu-15" target="7tLfOx50Y14fj7iIpUp_-9">
          <mxGeometry width="50" height="50" relative="1" as="geometry">
            <mxPoint x="1550" y="2440" as="sourcePoint" />
            <mxPoint x="1547.5" y="980" as="targetPoint" />
          </mxGeometry>
        </mxCell>
        <mxCell id="7tLfOx50Y14fj7iIpUp_-9" value="" style="html=1;points=[[0,0,0,0,5],[0,1,0,0,-5],[1,0,0,0,5],[1,1,0,0,-5]];perimeter=orthogonalPerimeter;outlineConnect=0;targetShapes=umlLifeline;portConstraint=eastwest;newEdgeStyle={&quot;curved&quot;:0,&quot;rounded&quot;:0};rounded=0;strokeColor=default;align=center;verticalAlign=middle;fontFamily=Helvetica;fontSize=12;fontColor=default;fillColor=default;" vertex="1" parent="1">
          <mxGeometry x="1539.5" y="1450" width="15" height="130" as="geometry" />
        </mxCell>
        <mxCell id="7tLfOx50Y14fj7iIpUp_-11" value="" style="endArrow=block;html=1;rounded=0;fontFamily=Helvetica;fontSize=12;fontColor=default;endSize=14;endFill=1;" edge="1" parent="1" target="7tLfOx50Y14fj7iIpUp_-9">
          <mxGeometry width="50" height="50" relative="1" as="geometry">
            <mxPoint x="1297.5" y="1470" as="sourcePoint" />
            <mxPoint x="1560" y="1470.42" as="targetPoint" />
          </mxGeometry>
        </mxCell>
        <mxCell id="7tLfOx50Y14fj7iIpUp_-12" value="&lt;font style=&quot;font-size: 14px;&quot;&gt;&lt;font style=&quot;font-size: 14px;&quot;&gt;GetUserByUsernameAndPassword&lt;/font&gt;()&lt;/font&gt;" style="edgeLabel;html=1;align=center;verticalAlign=middle;resizable=0;points=[];fontSize=12;fontFamily=Helvetica;fontColor=default;" vertex="1" connectable="0" parent="7tLfOx50Y14fj7iIpUp_-11">
          <mxGeometry x="-0.0113" y="-1" relative="1" as="geometry">
            <mxPoint y="-13" as="offset" />
          </mxGeometry>
        </mxCell>
        <mxCell id="7tLfOx50Y14fj7iIpUp_-13" value="&lt;span style=&quot;font-size: 16px;&quot;&gt;Database&lt;br&gt;&lt;/span&gt;" style="rounded=0;whiteSpace=wrap;html=1;" vertex="1" parent="1">
          <mxGeometry x="2080" y="920" width="120" height="60" as="geometry" />
        </mxCell>
        <mxCell id="7tLfOx50Y14fj7iIpUp_-14" value="" style="endArrow=none;dashed=1;html=1;rounded=0;fontFamily=Helvetica;fontSize=12;fontColor=default;strokeWidth=2;entryX=0.5;entryY=1;entryDx=0;entryDy=0;" edge="1" parent="1" source="7tLfOx50Y14fj7iIpUp_-16">
          <mxGeometry width="50" height="50" relative="1" as="geometry">
            <mxPoint x="2141" y="1920.8333333333333" as="sourcePoint" />
            <mxPoint x="2140.5" y="980" as="targetPoint" />
          </mxGeometry>
        </mxCell>
        <mxCell id="7tLfOx50Y14fj7iIpUp_-15" value="" style="endArrow=none;dashed=1;html=1;rounded=0;fontFamily=Helvetica;fontSize=12;fontColor=default;strokeWidth=2;entryX=0.5;entryY=1;entryDx=0;entryDy=0;" edge="1" parent="1" target="7tLfOx50Y14fj7iIpUp_-16" source="6vzCNUbuz62tQ9CqGoHu-11">
          <mxGeometry width="50" height="50" relative="1" as="geometry">
            <mxPoint x="2140" y="2430" as="sourcePoint" />
            <mxPoint x="2140.5" y="980" as="targetPoint" />
          </mxGeometry>
        </mxCell>
        <mxCell id="7tLfOx50Y14fj7iIpUp_-16" value="" style="html=1;points=[[0,0,0,0,5],[0,1,0,0,-5],[1,0,0,0,5],[1,1,0,0,-5]];perimeter=orthogonalPerimeter;outlineConnect=0;targetShapes=umlLifeline;portConstraint=eastwest;newEdgeStyle={&quot;curved&quot;:0,&quot;rounded&quot;:0};rounded=0;strokeColor=default;align=center;verticalAlign=middle;fontFamily=Helvetica;fontSize=12;fontColor=default;fillColor=default;" vertex="1" parent="1">
          <mxGeometry x="2132.5" y="1470" width="15" height="90" as="geometry" />
        </mxCell>
        <mxCell id="7tLfOx50Y14fj7iIpUp_-17" value="" style="endArrow=block;html=1;rounded=0;fontFamily=Helvetica;fontSize=12;fontColor=default;endSize=14;endFill=1;" edge="1" parent="1" target="7tLfOx50Y14fj7iIpUp_-16">
          <mxGeometry width="50" height="50" relative="1" as="geometry">
            <mxPoint x="1554.5" y="1490" as="sourcePoint" />
            <mxPoint x="1797" y="1490" as="targetPoint" />
          </mxGeometry>
        </mxCell>
        <mxCell id="7tLfOx50Y14fj7iIpUp_-18" value="&lt;font style=&quot;font-size: 14px;&quot;&gt;&lt;font style=&quot;font-size: 14px;&quot;&gt;Execute&lt;br&gt;GetUserByUsernameAndPassword&lt;/font&gt;()&lt;/font&gt;" style="edgeLabel;html=1;align=center;verticalAlign=middle;resizable=0;points=[];fontSize=12;fontFamily=Helvetica;fontColor=default;" vertex="1" connectable="0" parent="7tLfOx50Y14fj7iIpUp_-17">
          <mxGeometry x="-0.0113" y="-1" relative="1" as="geometry">
            <mxPoint x="30" y="-21" as="offset" />
          </mxGeometry>
        </mxCell>
        <mxCell id="7tLfOx50Y14fj7iIpUp_-19" value="" style="endArrow=none;html=1;rounded=0;labelBackgroundColor=default;strokeColor=default;align=center;verticalAlign=middle;fontFamily=Helvetica;fontSize=12;fontColor=default;endSize=14;shape=connector;startArrow=open;startFill=0;startSize=14;dashed=1;" edge="1" parent="1">
          <mxGeometry width="50" height="50" relative="1" as="geometry">
            <mxPoint x="1557" y="1536" as="sourcePoint" />
            <mxPoint x="2130" y="1540" as="targetPoint" />
          </mxGeometry>
        </mxCell>
        <mxCell id="7tLfOx50Y14fj7iIpUp_-20" value="&lt;font style=&quot;font-size: 14px;&quot;&gt;Response User Information&lt;/font&gt;" style="edgeLabel;html=1;align=center;verticalAlign=middle;resizable=0;points=[];fontSize=12;fontFamily=Helvetica;fontColor=default;" vertex="1" connectable="0" parent="7tLfOx50Y14fj7iIpUp_-19">
          <mxGeometry x="0.017" relative="1" as="geometry">
            <mxPoint x="21" y="-11" as="offset" />
          </mxGeometry>
        </mxCell>
        <mxCell id="7tLfOx50Y14fj7iIpUp_-22" value="" style="endArrow=none;html=1;rounded=0;labelBackgroundColor=default;strokeColor=default;align=center;verticalAlign=middle;fontFamily=Helvetica;fontSize=12;fontColor=default;endSize=14;shape=connector;startArrow=open;startFill=0;startSize=14;dashed=1;" edge="1" parent="1">
          <mxGeometry width="50" height="50" relative="1" as="geometry">
            <mxPoint x="1297.5" y="1560" as="sourcePoint" />
            <mxPoint x="1540" y="1560" as="targetPoint" />
          </mxGeometry>
        </mxCell>
        <mxCell id="7tLfOx50Y14fj7iIpUp_-23" value="&lt;font style=&quot;font-size: 14px;&quot;&gt;Response User Information&lt;/font&gt;" style="edgeLabel;html=1;align=center;verticalAlign=middle;resizable=0;points=[];fontSize=12;fontFamily=Helvetica;fontColor=default;" vertex="1" connectable="0" parent="7tLfOx50Y14fj7iIpUp_-22">
          <mxGeometry x="0.017" relative="1" as="geometry">
            <mxPoint y="-11" as="offset" />
          </mxGeometry>
        </mxCell>
        <mxCell id="7tLfOx50Y14fj7iIpUp_-24" value="" style="endArrow=none;html=1;rounded=0;labelBackgroundColor=default;strokeColor=default;align=center;verticalAlign=middle;fontFamily=Helvetica;fontSize=12;fontColor=default;endSize=14;shape=connector;startArrow=open;startFill=0;startSize=14;dashed=1;" edge="1" parent="1">
          <mxGeometry width="50" height="50" relative="1" as="geometry">
            <mxPoint x="1017.5" y="1580" as="sourcePoint" />
            <mxPoint x="1280" y="1580" as="targetPoint" />
          </mxGeometry>
        </mxCell>
        <mxCell id="7tLfOx50Y14fj7iIpUp_-25" value="&lt;font style=&quot;font-size: 14px;&quot;&gt;Response User Information&lt;/font&gt;" style="edgeLabel;html=1;align=center;verticalAlign=middle;resizable=0;points=[];fontSize=12;fontFamily=Helvetica;fontColor=default;" vertex="1" connectable="0" parent="7tLfOx50Y14fj7iIpUp_-24">
          <mxGeometry x="0.017" relative="1" as="geometry">
            <mxPoint y="-11" as="offset" />
          </mxGeometry>
        </mxCell>
        <mxCell id="7tLfOx50Y14fj7iIpUp_-26" value="opt" style="shape=umlFrame;whiteSpace=wrap;html=1;pointerEvents=0;rounded=0;strokeColor=default;align=center;verticalAlign=middle;fontFamily=Helvetica;fontSize=12;fontColor=default;fillColor=default;" vertex="1" parent="1">
          <mxGeometry x="110" y="1610" width="950" height="100" as="geometry" />
        </mxCell>
        <mxCell id="7tLfOx50Y14fj7iIpUp_-27" value="[user == null]" style="text;html=1;align=center;verticalAlign=middle;resizable=0;points=[];autosize=1;strokeColor=none;fillColor=none;fontSize=14;fontFamily=Helvetica;fontColor=default;" vertex="1" parent="1">
          <mxGeometry x="730" y="1610" width="100" height="30" as="geometry" />
        </mxCell>
        <mxCell id="7tLfOx50Y14fj7iIpUp_-28" value="" style="endArrow=none;html=1;rounded=0;labelBackgroundColor=default;strokeColor=default;align=center;verticalAlign=middle;fontFamily=Helvetica;fontSize=12;fontColor=default;endSize=14;shape=connector;startArrow=open;startFill=0;startSize=14;dashed=1;" edge="1" parent="1" target="WSxLw_TWdBIhVjpOE-Vx-3">
          <mxGeometry width="50" height="50" relative="1" as="geometry">
            <mxPoint x="740" y="1660" as="sourcePoint" />
            <mxPoint x="992.5" y="1659.64" as="targetPoint" />
          </mxGeometry>
        </mxCell>
        <mxCell id="7tLfOx50Y14fj7iIpUp_-29" value="&lt;font style=&quot;font-size: 14px;&quot;&gt;Return NotFound with Message&lt;/font&gt;" style="edgeLabel;html=1;align=center;verticalAlign=middle;resizable=0;points=[];fontSize=12;fontFamily=Helvetica;fontColor=default;" vertex="1" connectable="0" parent="7tLfOx50Y14fj7iIpUp_-28">
          <mxGeometry x="0.017" relative="1" as="geometry">
            <mxPoint y="-11" as="offset" />
          </mxGeometry>
        </mxCell>
        <mxCell id="7tLfOx50Y14fj7iIpUp_-30" value="" style="endArrow=none;html=1;rounded=0;labelBackgroundColor=default;strokeColor=default;align=center;verticalAlign=middle;fontFamily=Helvetica;fontSize=12;fontColor=default;endSize=14;shape=connector;startArrow=open;startFill=0;startSize=14;dashed=1;" edge="1" parent="1">
          <mxGeometry width="50" height="50" relative="1" as="geometry">
            <mxPoint x="477" y="1680" as="sourcePoint" />
            <mxPoint x="720" y="1680" as="targetPoint" />
          </mxGeometry>
        </mxCell>
        <mxCell id="7tLfOx50Y14fj7iIpUp_-31" value="&lt;font style=&quot;font-size: 14px;&quot;&gt;Return message:&lt;br&gt;Username or Password not correct!&amp;nbsp;&lt;/font&gt;" style="edgeLabel;html=1;align=center;verticalAlign=middle;resizable=0;points=[];fontSize=12;fontFamily=Helvetica;fontColor=default;" vertex="1" connectable="0" parent="7tLfOx50Y14fj7iIpUp_-30">
          <mxGeometry x="0.017" relative="1" as="geometry">
            <mxPoint y="-23" as="offset" />
          </mxGeometry>
        </mxCell>
        <mxCell id="7tLfOx50Y14fj7iIpUp_-32" value="" style="endArrow=none;html=1;rounded=0;labelBackgroundColor=default;strokeColor=default;align=center;verticalAlign=middle;fontFamily=Helvetica;fontSize=12;fontColor=default;endSize=14;shape=connector;startArrow=open;startFill=0;startSize=14;dashed=1;" edge="1" parent="1" target="A0_r6HF5ietANmtNoq24-3">
          <mxGeometry width="50" height="50" relative="1" as="geometry">
            <mxPoint x="198.5" y="1690" as="sourcePoint" />
            <mxPoint x="441.5" y="1690" as="targetPoint" />
          </mxGeometry>
        </mxCell>
        <mxCell id="7tLfOx50Y14fj7iIpUp_-33" value="&lt;font style=&quot;font-size: 14px;&quot;&gt;Show message:&lt;br&gt;Username or Password not correct!&amp;nbsp;&lt;/font&gt;" style="edgeLabel;html=1;align=center;verticalAlign=middle;resizable=0;points=[];fontSize=12;fontFamily=Helvetica;fontColor=default;" vertex="1" connectable="0" parent="7tLfOx50Y14fj7iIpUp_-32">
          <mxGeometry x="0.017" relative="1" as="geometry">
            <mxPoint y="-23" as="offset" />
          </mxGeometry>
        </mxCell>
        <mxCell id="7tLfOx50Y14fj7iIpUp_-35" value="opt" style="shape=umlFrame;whiteSpace=wrap;html=1;pointerEvents=0;rounded=0;strokeColor=default;align=center;verticalAlign=middle;fontFamily=Helvetica;fontSize=12;fontColor=default;fillColor=default;" vertex="1" parent="1">
          <mxGeometry x="110" y="1750" width="950" height="100" as="geometry" />
        </mxCell>
        <mxCell id="7tLfOx50Y14fj7iIpUp_-36" value="[user status == false]" style="text;html=1;align=center;verticalAlign=middle;resizable=0;points=[];autosize=1;strokeColor=none;fillColor=none;fontSize=14;fontFamily=Helvetica;fontColor=default;" vertex="1" parent="1">
          <mxGeometry x="730" y="1750" width="150" height="30" as="geometry" />
        </mxCell>
        <mxCell id="7tLfOx50Y14fj7iIpUp_-37" value="" style="endArrow=none;html=1;rounded=0;labelBackgroundColor=default;strokeColor=default;align=center;verticalAlign=middle;fontFamily=Helvetica;fontSize=12;fontColor=default;endSize=14;shape=connector;startArrow=open;startFill=0;startSize=14;dashed=1;" edge="1" parent="1">
          <mxGeometry width="50" height="50" relative="1" as="geometry">
            <mxPoint x="740" y="1800" as="sourcePoint" />
            <mxPoint x="1003" y="1800" as="targetPoint" />
          </mxGeometry>
        </mxCell>
        <mxCell id="7tLfOx50Y14fj7iIpUp_-38" value="&lt;font style=&quot;font-size: 14px;&quot;&gt;Return Conflict with Message&lt;/font&gt;" style="edgeLabel;html=1;align=center;verticalAlign=middle;resizable=0;points=[];fontSize=12;fontFamily=Helvetica;fontColor=default;" vertex="1" connectable="0" parent="7tLfOx50Y14fj7iIpUp_-37">
          <mxGeometry x="0.017" relative="1" as="geometry">
            <mxPoint y="-11" as="offset" />
          </mxGeometry>
        </mxCell>
        <mxCell id="7tLfOx50Y14fj7iIpUp_-39" value="" style="endArrow=none;html=1;rounded=0;labelBackgroundColor=default;strokeColor=default;align=center;verticalAlign=middle;fontFamily=Helvetica;fontSize=12;fontColor=default;endSize=14;shape=connector;startArrow=open;startFill=0;startSize=14;dashed=1;" edge="1" parent="1">
          <mxGeometry width="50" height="50" relative="1" as="geometry">
            <mxPoint x="477" y="1820" as="sourcePoint" />
            <mxPoint x="720" y="1820" as="targetPoint" />
          </mxGeometry>
        </mxCell>
        <mxCell id="7tLfOx50Y14fj7iIpUp_-40" value="&lt;font style=&quot;font-size: 14px;&quot;&gt;Return message:&lt;br&gt;Your account was baned!&amp;nbsp;&lt;/font&gt;" style="edgeLabel;html=1;align=center;verticalAlign=middle;resizable=0;points=[];fontSize=12;fontFamily=Helvetica;fontColor=default;" vertex="1" connectable="0" parent="7tLfOx50Y14fj7iIpUp_-39">
          <mxGeometry x="0.017" relative="1" as="geometry">
            <mxPoint y="-23" as="offset" />
          </mxGeometry>
        </mxCell>
        <mxCell id="7tLfOx50Y14fj7iIpUp_-41" value="" style="endArrow=none;html=1;rounded=0;labelBackgroundColor=default;strokeColor=default;align=center;verticalAlign=middle;fontFamily=Helvetica;fontSize=12;fontColor=default;endSize=14;shape=connector;startArrow=open;startFill=0;startSize=14;dashed=1;" edge="1" parent="1">
          <mxGeometry width="50" height="50" relative="1" as="geometry">
            <mxPoint x="198.5" y="1830" as="sourcePoint" />
            <mxPoint x="462" y="1830" as="targetPoint" />
          </mxGeometry>
        </mxCell>
        <mxCell id="7tLfOx50Y14fj7iIpUp_-42" value="&lt;font style=&quot;font-size: 14px;&quot;&gt;Show message:&lt;br&gt;Your account was baned!&amp;nbsp;&lt;/font&gt;" style="edgeLabel;html=1;align=center;verticalAlign=middle;resizable=0;points=[];fontSize=12;fontFamily=Helvetica;fontColor=default;" vertex="1" connectable="0" parent="7tLfOx50Y14fj7iIpUp_-41">
          <mxGeometry x="0.017" relative="1" as="geometry">
            <mxPoint y="-23" as="offset" />
          </mxGeometry>
        </mxCell>
        <mxCell id="7tLfOx50Y14fj7iIpUp_-43" value="opt" style="shape=umlFrame;whiteSpace=wrap;html=1;pointerEvents=0;rounded=0;strokeColor=default;align=center;verticalAlign=middle;fontFamily=Helvetica;fontSize=12;fontColor=default;fillColor=default;" vertex="1" parent="1">
          <mxGeometry x="110" y="1870" width="950" height="100" as="geometry" />
        </mxCell>
        <mxCell id="7tLfOx50Y14fj7iIpUp_-44" value="[user not confirm (email]" style="text;html=1;align=center;verticalAlign=middle;resizable=0;points=[];autosize=1;strokeColor=none;fillColor=none;fontSize=14;fontFamily=Helvetica;fontColor=default;" vertex="1" parent="1">
          <mxGeometry x="730" y="1870" width="170" height="30" as="geometry" />
        </mxCell>
        <mxCell id="7tLfOx50Y14fj7iIpUp_-45" value="" style="endArrow=none;html=1;rounded=0;labelBackgroundColor=default;strokeColor=default;align=center;verticalAlign=middle;fontFamily=Helvetica;fontSize=12;fontColor=default;endSize=14;shape=connector;startArrow=open;startFill=0;startSize=14;dashed=1;" edge="1" parent="1">
          <mxGeometry width="50" height="50" relative="1" as="geometry">
            <mxPoint x="740" y="1920" as="sourcePoint" />
            <mxPoint x="1003" y="1920" as="targetPoint" />
          </mxGeometry>
        </mxCell>
        <mxCell id="7tLfOx50Y14fj7iIpUp_-46" value="&lt;font style=&quot;font-size: 14px;&quot;&gt;Return Conflict with Message&lt;/font&gt;" style="edgeLabel;html=1;align=center;verticalAlign=middle;resizable=0;points=[];fontSize=12;fontFamily=Helvetica;fontColor=default;" vertex="1" connectable="0" parent="7tLfOx50Y14fj7iIpUp_-45">
          <mxGeometry x="0.017" relative="1" as="geometry">
            <mxPoint y="-11" as="offset" />
          </mxGeometry>
        </mxCell>
        <mxCell id="7tLfOx50Y14fj7iIpUp_-47" value="" style="endArrow=none;html=1;rounded=0;labelBackgroundColor=default;strokeColor=default;align=center;verticalAlign=middle;fontFamily=Helvetica;fontSize=12;fontColor=default;endSize=14;shape=connector;startArrow=open;startFill=0;startSize=14;dashed=1;" edge="1" parent="1">
          <mxGeometry width="50" height="50" relative="1" as="geometry">
            <mxPoint x="477" y="1940" as="sourcePoint" />
            <mxPoint x="720" y="1940" as="targetPoint" />
          </mxGeometry>
        </mxCell>
        <mxCell id="7tLfOx50Y14fj7iIpUp_-48" value="&lt;font style=&quot;font-size: 14px;&quot;&gt;Return message:&lt;br&gt;Your account not authenticate email!&amp;nbsp;&lt;/font&gt;" style="edgeLabel;html=1;align=center;verticalAlign=middle;resizable=0;points=[];fontSize=12;fontFamily=Helvetica;fontColor=default;" vertex="1" connectable="0" parent="7tLfOx50Y14fj7iIpUp_-47">
          <mxGeometry x="0.017" relative="1" as="geometry">
            <mxPoint y="-23" as="offset" />
          </mxGeometry>
        </mxCell>
        <mxCell id="7tLfOx50Y14fj7iIpUp_-49" value="" style="endArrow=none;html=1;rounded=0;labelBackgroundColor=default;strokeColor=default;align=center;verticalAlign=middle;fontFamily=Helvetica;fontSize=12;fontColor=default;endSize=14;shape=connector;startArrow=open;startFill=0;startSize=14;dashed=1;" edge="1" parent="1">
          <mxGeometry width="50" height="50" relative="1" as="geometry">
            <mxPoint x="198.5" y="1950" as="sourcePoint" />
            <mxPoint x="462" y="1950" as="targetPoint" />
          </mxGeometry>
        </mxCell>
        <mxCell id="7tLfOx50Y14fj7iIpUp_-50" value="&lt;font style=&quot;&quot;&gt;Show message:&lt;br&gt;&lt;span style=&quot;font-size: 14px;&quot;&gt;Your account not authenticate email!&lt;/span&gt;&lt;br&gt;&lt;/font&gt;" style="edgeLabel;html=1;align=center;verticalAlign=middle;resizable=0;points=[];fontSize=12;fontFamily=Helvetica;fontColor=default;" vertex="1" connectable="0" parent="7tLfOx50Y14fj7iIpUp_-49">
          <mxGeometry x="0.017" relative="1" as="geometry">
            <mxPoint y="-23" as="offset" />
          </mxGeometry>
        </mxCell>
        <mxCell id="7tLfOx50Y14fj7iIpUp_-51" value="opt" style="shape=umlFrame;whiteSpace=wrap;html=1;pointerEvents=0;rounded=0;strokeColor=#82b366;align=center;verticalAlign=middle;fontFamily=Helvetica;fontSize=12;fillColor=#d5e8d4;" vertex="1" parent="1">
          <mxGeometry x="110" y="2010" width="950" height="100" as="geometry" />
        </mxCell>
        <mxCell id="7tLfOx50Y14fj7iIpUp_-52" value="[Has TwoFactorAuthentication]" style="text;html=1;align=center;verticalAlign=middle;resizable=0;points=[];autosize=1;strokeColor=none;fillColor=none;fontSize=14;fontFamily=Helvetica;fontColor=default;" vertex="1" parent="1">
          <mxGeometry x="736.5" y="2010" width="210" height="30" as="geometry" />
        </mxCell>
        <mxCell id="7tLfOx50Y14fj7iIpUp_-53" value="" style="endArrow=none;html=1;rounded=0;labelBackgroundColor=default;strokeColor=default;align=center;verticalAlign=middle;fontFamily=Helvetica;fontSize=12;fontColor=default;endSize=14;shape=connector;startArrow=open;startFill=0;startSize=14;dashed=1;" edge="1" parent="1">
          <mxGeometry width="50" height="50" relative="1" as="geometry">
            <mxPoint x="740" y="2060" as="sourcePoint" />
            <mxPoint x="1003" y="2060" as="targetPoint" />
          </mxGeometry>
        </mxCell>
        <mxCell id="7tLfOx50Y14fj7iIpUp_-54" value="&lt;font style=&quot;font-size: 14px;&quot;&gt;Return Status 416&lt;/font&gt;" style="edgeLabel;html=1;align=center;verticalAlign=middle;resizable=0;points=[];fontSize=12;fontFamily=Helvetica;fontColor=default;" vertex="1" connectable="0" parent="7tLfOx50Y14fj7iIpUp_-53">
          <mxGeometry x="0.017" relative="1" as="geometry">
            <mxPoint y="-11" as="offset" />
          </mxGeometry>
        </mxCell>
        <mxCell id="7tLfOx50Y14fj7iIpUp_-55" value="" style="endArrow=none;html=1;rounded=0;labelBackgroundColor=default;strokeColor=default;align=center;verticalAlign=middle;fontFamily=Helvetica;fontSize=12;fontColor=default;endSize=14;shape=connector;startArrow=open;startFill=0;startSize=14;dashed=1;" edge="1" parent="1">
          <mxGeometry width="50" height="50" relative="1" as="geometry">
            <mxPoint x="477" y="2080" as="sourcePoint" />
            <mxPoint x="720" y="2080" as="targetPoint" />
          </mxGeometry>
        </mxCell>
        <mxCell id="7tLfOx50Y14fj7iIpUp_-56" value="&lt;font style=&quot;font-size: 14px;&quot;&gt;Send status 416 + UserId&amp;nbsp;&lt;/font&gt;" style="edgeLabel;html=1;align=center;verticalAlign=middle;resizable=0;points=[];fontSize=12;fontFamily=Helvetica;fontColor=default;" vertex="1" connectable="0" parent="7tLfOx50Y14fj7iIpUp_-55">
          <mxGeometry x="0.017" relative="1" as="geometry">
            <mxPoint y="-23" as="offset" />
          </mxGeometry>
        </mxCell>
        <mxCell id="7tLfOx50Y14fj7iIpUp_-59" value="&lt;span style=&quot;font-size: 16px;&quot;&gt;JWT Token&lt;br&gt;Service&lt;br&gt;&lt;/span&gt;" style="rounded=0;whiteSpace=wrap;html=1;" vertex="1" parent="1">
          <mxGeometry x="1780" y="920" width="120" height="60" as="geometry" />
        </mxCell>
        <mxCell id="7tLfOx50Y14fj7iIpUp_-60" value="" style="endArrow=none;dashed=1;html=1;rounded=0;fontFamily=Helvetica;fontSize=12;fontColor=default;strokeWidth=2;entryX=0.5;entryY=1;entryDx=0;entryDy=0;" edge="1" parent="1" source="7tLfOx50Y14fj7iIpUp_-62">
          <mxGeometry width="50" height="50" relative="1" as="geometry">
            <mxPoint x="1841" y="1920.8333333333333" as="sourcePoint" />
            <mxPoint x="1840.5" y="980" as="targetPoint" />
          </mxGeometry>
        </mxCell>
        <mxCell id="7tLfOx50Y14fj7iIpUp_-61" value="" style="endArrow=none;dashed=1;html=1;rounded=0;fontFamily=Helvetica;fontSize=12;fontColor=default;strokeWidth=2;entryX=0.5;entryY=1;entryDx=0;entryDy=0;" edge="1" parent="1" target="7tLfOx50Y14fj7iIpUp_-62" source="6vzCNUbuz62tQ9CqGoHu-13">
          <mxGeometry width="50" height="50" relative="1" as="geometry">
            <mxPoint x="1840" y="2440" as="sourcePoint" />
            <mxPoint x="1840.5" y="980" as="targetPoint" />
          </mxGeometry>
        </mxCell>
        <mxCell id="7tLfOx50Y14fj7iIpUp_-62" value="" style="html=1;points=[[0,0,0,0,5],[0,1,0,0,-5],[1,0,0,0,5],[1,1,0,0,-5]];perimeter=orthogonalPerimeter;outlineConnect=0;targetShapes=umlLifeline;portConstraint=eastwest;newEdgeStyle={&quot;curved&quot;:0,&quot;rounded&quot;:0};rounded=0;strokeColor=default;align=center;verticalAlign=middle;fontFamily=Helvetica;fontSize=12;fontColor=default;fillColor=default;" vertex="1" parent="1">
          <mxGeometry x="1832.5" y="2120" width="15" height="120" as="geometry" />
        </mxCell>
        <mxCell id="7tLfOx50Y14fj7iIpUp_-63" value="" style="endArrow=block;html=1;rounded=0;labelBackgroundColor=default;strokeColor=default;align=center;verticalAlign=middle;fontFamily=Helvetica;fontSize=12;fontColor=default;endSize=14;shape=connector;endFill=1;" edge="1" parent="1">
          <mxGeometry width="50" height="50" relative="1" as="geometry">
            <mxPoint x="1017.5" y="2146" as="sourcePoint" />
            <mxPoint x="1832.5" y="2146" as="targetPoint" />
          </mxGeometry>
        </mxCell>
        <mxCell id="7tLfOx50Y14fj7iIpUp_-64" value="&lt;font style=&quot;font-size: 14px;&quot;&gt;Request&amp;nbsp;GenerateTokenAsync()&lt;/font&gt;" style="edgeLabel;html=1;align=center;verticalAlign=middle;resizable=0;points=[];fontSize=12;fontFamily=Helvetica;fontColor=default;" vertex="1" connectable="0" parent="7tLfOx50Y14fj7iIpUp_-63">
          <mxGeometry x="-0.0094" y="3" relative="1" as="geometry">
            <mxPoint y="-13" as="offset" />
          </mxGeometry>
        </mxCell>
        <mxCell id="6vzCNUbuz62tQ9CqGoHu-1" value="" style="endArrow=none;html=1;rounded=0;labelBackgroundColor=default;strokeColor=default;align=center;verticalAlign=middle;fontFamily=Helvetica;fontSize=12;fontColor=default;endSize=14;shape=connector;startArrow=open;startFill=0;startSize=14;dashed=1;" edge="1" parent="1" target="7tLfOx50Y14fj7iIpUp_-62">
          <mxGeometry width="50" height="50" relative="1" as="geometry">
            <mxPoint x="1017.5" y="2210" as="sourcePoint" />
            <mxPoint x="1280.5" y="2210" as="targetPoint" />
          </mxGeometry>
        </mxCell>
        <mxCell id="6vzCNUbuz62tQ9CqGoHu-2" value="&lt;font style=&quot;font-size: 14px;&quot;&gt;Return User Information with Token&lt;/font&gt;" style="edgeLabel;html=1;align=center;verticalAlign=middle;resizable=0;points=[];fontSize=12;fontFamily=Helvetica;fontColor=default;" vertex="1" connectable="0" parent="6vzCNUbuz62tQ9CqGoHu-1">
          <mxGeometry x="0.017" relative="1" as="geometry">
            <mxPoint y="-11" as="offset" />
          </mxGeometry>
        </mxCell>
        <mxCell id="6vzCNUbuz62tQ9CqGoHu-4" value="" style="endArrow=none;html=1;rounded=0;labelBackgroundColor=default;strokeColor=default;align=center;verticalAlign=middle;fontFamily=Helvetica;fontSize=12;fontColor=default;endSize=14;shape=connector;startArrow=open;startFill=0;startSize=14;dashed=1;" edge="1" parent="1">
          <mxGeometry width="50" height="50" relative="1" as="geometry">
            <mxPoint x="736.5" y="2250" as="sourcePoint" />
            <mxPoint x="999.5" y="2250" as="targetPoint" />
          </mxGeometry>
        </mxCell>
        <mxCell id="6vzCNUbuz62tQ9CqGoHu-5" value="&lt;font style=&quot;font-size: 14px;&quot;&gt;Save Login Cookie, return login success&lt;/font&gt;" style="edgeLabel;html=1;align=center;verticalAlign=middle;resizable=0;points=[];fontSize=12;fontFamily=Helvetica;fontColor=default;" vertex="1" connectable="0" parent="6vzCNUbuz62tQ9CqGoHu-4">
          <mxGeometry x="0.017" relative="1" as="geometry">
            <mxPoint y="-11" as="offset" />
          </mxGeometry>
        </mxCell>
        <mxCell id="6vzCNUbuz62tQ9CqGoHu-6" value="" style="endArrow=none;html=1;rounded=0;labelBackgroundColor=default;strokeColor=default;align=center;verticalAlign=middle;fontFamily=Helvetica;fontSize=12;fontColor=default;endSize=14;shape=connector;startArrow=open;startFill=0;startSize=14;dashed=1;" edge="1" parent="1">
          <mxGeometry width="50" height="50" relative="1" as="geometry">
            <mxPoint x="480" y="2270" as="sourcePoint" />
            <mxPoint x="721.5" y="2270" as="targetPoint" />
          </mxGeometry>
        </mxCell>
        <mxCell id="6vzCNUbuz62tQ9CqGoHu-7" value="&lt;font style=&quot;font-size: 14px;&quot;&gt;Redirect to HomePage GUI&lt;/font&gt;" style="edgeLabel;html=1;align=center;verticalAlign=middle;resizable=0;points=[];fontSize=12;fontFamily=Helvetica;fontColor=default;" vertex="1" connectable="0" parent="6vzCNUbuz62tQ9CqGoHu-6">
          <mxGeometry x="0.017" relative="1" as="geometry">
            <mxPoint y="-11" as="offset" />
          </mxGeometry>
        </mxCell>
        <mxCell id="6vzCNUbuz62tQ9CqGoHu-8" value="" style="endArrow=none;html=1;rounded=0;labelBackgroundColor=default;strokeColor=default;align=center;verticalAlign=middle;fontFamily=Helvetica;fontSize=12;fontColor=default;endSize=14;shape=connector;startArrow=open;startFill=0;startSize=14;dashed=1;" edge="1" parent="1" target="A0_r6HF5ietANmtNoq24-3">
          <mxGeometry width="50" height="50" relative="1" as="geometry">
            <mxPoint x="199.25" y="2290" as="sourcePoint" />
            <mxPoint x="440.75" y="2290" as="targetPoint" />
          </mxGeometry>
        </mxCell>
        <mxCell id="6vzCNUbuz62tQ9CqGoHu-9" value="&lt;font style=&quot;font-size: 14px;&quot;&gt;Show HomePage&lt;/font&gt;" style="edgeLabel;html=1;align=center;verticalAlign=middle;resizable=0;points=[];fontSize=12;fontFamily=Helvetica;fontColor=default;" vertex="1" connectable="0" parent="6vzCNUbuz62tQ9CqGoHu-8">
          <mxGeometry x="0.017" relative="1" as="geometry">
            <mxPoint y="-11" as="offset" />
          </mxGeometry>
        </mxCell>
        <mxCell id="6vzCNUbuz62tQ9CqGoHu-12" value="" style="endArrow=none;dashed=1;html=1;rounded=0;fontFamily=Helvetica;fontSize=12;fontColor=default;strokeWidth=2;entryX=0.5;entryY=1;entryDx=0;entryDy=0;" edge="1" parent="1" target="6vzCNUbuz62tQ9CqGoHu-11">
          <mxGeometry width="50" height="50" relative="1" as="geometry">
            <mxPoint x="2140" y="2430" as="sourcePoint" />
            <mxPoint x="2140" y="1560" as="targetPoint" />
          </mxGeometry>
        </mxCell>
        <mxCell id="6vzCNUbuz62tQ9CqGoHu-11" value="" style="shape=umlDestroy;whiteSpace=wrap;html=1;strokeWidth=3;targetShapes=umlLifeline;rounded=0;strokeColor=default;align=center;verticalAlign=middle;fontFamily=Helvetica;fontSize=12;fontColor=default;fillColor=default;" vertex="1" parent="1">
          <mxGeometry x="2127.5" y="1600" width="25" height="20" as="geometry" />
        </mxCell>
        <mxCell id="6vzCNUbuz62tQ9CqGoHu-14" value="" style="endArrow=none;dashed=1;html=1;rounded=0;fontFamily=Helvetica;fontSize=12;fontColor=default;strokeWidth=2;entryX=0.5;entryY=1;entryDx=0;entryDy=0;" edge="1" parent="1" target="6vzCNUbuz62tQ9CqGoHu-13">
          <mxGeometry width="50" height="50" relative="1" as="geometry">
            <mxPoint x="1840" y="2440" as="sourcePoint" />
            <mxPoint x="1840" y="2240" as="targetPoint" />
          </mxGeometry>
        </mxCell>
        <mxCell id="6vzCNUbuz62tQ9CqGoHu-13" value="" style="shape=umlDestroy;whiteSpace=wrap;html=1;strokeWidth=3;targetShapes=umlLifeline;rounded=0;strokeColor=default;align=center;verticalAlign=middle;fontFamily=Helvetica;fontSize=12;fontColor=default;fillColor=default;" vertex="1" parent="1">
          <mxGeometry x="1827.5" y="2270" width="25" height="20" as="geometry" />
        </mxCell>
        <mxCell id="6vzCNUbuz62tQ9CqGoHu-16" value="" style="endArrow=none;dashed=1;html=1;rounded=0;fontFamily=Helvetica;fontSize=12;fontColor=default;strokeWidth=2;entryX=0.5;entryY=1;entryDx=0;entryDy=0;" edge="1" parent="1" target="6vzCNUbuz62tQ9CqGoHu-15">
          <mxGeometry width="50" height="50" relative="1" as="geometry">
            <mxPoint x="1550" y="2440" as="sourcePoint" />
            <mxPoint x="1547" y="1580" as="targetPoint" />
          </mxGeometry>
        </mxCell>
        <mxCell id="6vzCNUbuz62tQ9CqGoHu-15" value="" style="shape=umlDestroy;whiteSpace=wrap;html=1;strokeWidth=3;targetShapes=umlLifeline;rounded=0;strokeColor=default;align=center;verticalAlign=middle;fontFamily=Helvetica;fontSize=12;fontColor=default;fillColor=default;" vertex="1" parent="1">
          <mxGeometry x="1533" y="1630" width="28" height="20" as="geometry" />
        </mxCell>
      </root>
    </mxGraphModel>
  </diagram>
</mxfile>
